# Wavefront OBJ file automatically generated by Tiled2Unity

# Vertices (Count = 90)
v -248 -184 0
v -256 -184 0
v -256 -176 0
v -248 -176 0
v -264 -184 0
v -264 -176 0
v -272 -184 0
v -272 -176 0
v -280 -184 0
v -280 -176 0
v -288 -184 0
v -288 -176 0
v -296 -184 0
v -296 -176 0
v -304 -184 0
v -304 -176 0
v -312 -184 0
v -312 -176 0
v -248 -192 0
v -256 -192 0
v -264 -192 0
v -272 -192 0
v -280 -192 0
v -288 -192 0
v -296 -192 0
v -304 -192 0
v -312 -192 0
v -248 -200 0
v -256 -200 0
v -264 -200 0
v -272 -200 0
v -280 -200 0
v -288 -200 0
v -296 -200 0
v -304 -200 0
v -312 -200 0
v -248 -208 0
v -256 -208 0
v -264 -208 0
v -272 -208 0
v -280 -208 0
v -288 -208 0
v -296 -208 0
v -304 -208 0
v -312 -208 0
v -248 -216 0
v -256 -216 0
v -264 -216 0
v -272 -216 0
v -280 -216 0
v -288 -216 0
v -296 -216 0
v -304 -216 0
v -312 -216 0
v -248 -224 0
v -256 -224 0
v -264 -224 0
v -272 -224 0
v -280 -224 0
v -288 -224 0
v -296 -224 0
v -304 -224 0
v -312 -224 0
v -248 -232 0
v -256 -232 0
v -264 -232 0
v -272 -232 0
v -280 -232 0
v -288 -232 0
v -296 -232 0
v -304 -232 0
v -312 -232 0
v -248 -240 0
v -256 -240 0
v -264 -240 0
v -272 -240 0
v -280 -240 0
v -288 -240 0
v -296 -240 0
v -304 -240 0
v -312 -240 0
v -248 -248 0
v -256 -248 0
v -264 -248 0
v -272 -248 0
v -280 -248 0
v -288 -248 0
v -296 -248 0
v -304 -248 0
v -312 -248 0

# Texture cooridinates (Count = 288)
vt 0.1579346 0.982761
vt 0.1701904 0.982761
vt 0.1701904 0.9964057
vt 0.1579346 0.9964057
vt 0.1719971 0.982761
vt 0.1842529 0.982761
vt 0.1842529 0.9964057
vt 0.1719971 0.9964057
vt 0.1860596 0.982761
vt 0.1983154 0.982761
vt 0.1983154 0.9964057
vt 0.1860596 0.9964057
vt 0.2001221 0.982761
vt 0.2123779 0.982761
vt 0.2123779 0.9964057
vt 0.2001221 0.9964057
vt 0.2141846 0.982761
vt 0.2264404 0.982761
vt 0.2264404 0.9964057
vt 0.2141846 0.9964057
vt 0.2282471 0.982761
vt 0.2405029 0.982761
vt 0.2405029 0.9964057
vt 0.2282471 0.9964057
vt 0.2423096 0.982761
vt 0.2545654 0.982761
vt 0.2545654 0.9964057
vt 0.2423096 0.9964057
vt 0.2563721 0.982761
vt 0.2686279 0.982761
vt 0.2686279 0.9964057
vt 0.2563721 0.9964057
vt 0.1579346 0.967136
vt 0.1701904 0.967136
vt 0.1701904 0.9807807
vt 0.1579346 0.9807807
vt 0.1719971 0.967136
vt 0.1842529 0.967136
vt 0.1842529 0.9807807
vt 0.1719971 0.9807807
vt 0.1860596 0.967136
vt 0.1983154 0.967136
vt 0.1983154 0.9807807
vt 0.1860596 0.9807807
vt 0.2001221 0.967136
vt 0.2123779 0.967136
vt 0.2123779 0.9807807
vt 0.2001221 0.9807807
vt 0.2141846 0.967136
vt 0.2264404 0.967136
vt 0.2264404 0.9807807
vt 0.2141846 0.9807807
vt 0.2282471 0.967136
vt 0.2405029 0.967136
vt 0.2405029 0.9807807
vt 0.2282471 0.9807807
vt 0.2423096 0.967136
vt 0.2545654 0.967136
vt 0.2545654 0.9807807
vt 0.2423096 0.9807807
vt 0.2563721 0.967136
vt 0.2686279 0.967136
vt 0.2686279 0.9807807
vt 0.2563721 0.9807807
vt 0.1579346 0.951511
vt 0.1701904 0.951511
vt 0.1701904 0.9651557
vt 0.1579346 0.9651557
vt 0.1719971 0.951511
vt 0.1842529 0.951511
vt 0.1842529 0.9651557
vt 0.1719971 0.9651557
vt 0.1860596 0.951511
vt 0.1983154 0.951511
vt 0.1983154 0.9651557
vt 0.1860596 0.9651557
vt 0.2001221 0.951511
vt 0.2123779 0.951511
vt 0.2123779 0.9651557
vt 0.2001221 0.9651557
vt 0.2141846 0.951511
vt 0.2264404 0.951511
vt 0.2264404 0.9651557
vt 0.2141846 0.9651557
vt 0.2282471 0.951511
vt 0.2405029 0.951511
vt 0.2405029 0.9651557
vt 0.2282471 0.9651557
vt 0.2423096 0.951511
vt 0.2545654 0.951511
vt 0.2545654 0.9651557
vt 0.2423096 0.9651557
vt 0.2563721 0.951511
vt 0.2686279 0.951511
vt 0.2686279 0.9651557
vt 0.2563721 0.9651557
vt 0.1579346 0.935886
vt 0.1701904 0.935886
vt 0.1701904 0.9495307
vt 0.1579346 0.9495307
vt 0.1719971 0.935886
vt 0.1842529 0.935886
vt 0.1842529 0.9495307
vt 0.1719971 0.9495307
vt 0.1860596 0.935886
vt 0.1983154 0.935886
vt 0.1983154 0.9495307
vt 0.1860596 0.9495307
vt 0.2001221 0.935886
vt 0.2123779 0.935886
vt 0.2123779 0.9495307
vt 0.2001221 0.9495307
vt 0.2141846 0.935886
vt 0.2264404 0.935886
vt 0.2264404 0.9495307
vt 0.2141846 0.9495307
vt 0.2282471 0.935886
vt 0.2405029 0.935886
vt 0.2405029 0.9495307
vt 0.2282471 0.9495307
vt 0.2423096 0.935886
vt 0.2545654 0.935886
vt 0.2545654 0.9495307
vt 0.2423096 0.9495307
vt 0.2563721 0.935886
vt 0.2686279 0.935886
vt 0.2686279 0.9495307
vt 0.2563721 0.9495307
vt 0.1579346 0.920261
vt 0.1701904 0.920261
vt 0.1701904 0.9339057
vt 0.1579346 0.9339057
vt 0.1719971 0.920261
vt 0.1842529 0.920261
vt 0.1842529 0.9339057
vt 0.1719971 0.9339057
vt 0.1860596 0.920261
vt 0.1983154 0.920261
vt 0.1983154 0.9339057
vt 0.1860596 0.9339057
vt 0.2001221 0.920261
vt 0.2123779 0.920261
vt 0.2123779 0.9339057
vt 0.2001221 0.9339057
vt 0.2141846 0.920261
vt 0.2264404 0.920261
vt 0.2264404 0.9339057
vt 0.2141846 0.9339057
vt 0.2282471 0.920261
vt 0.2405029 0.920261
vt 0.2405029 0.9339057
vt 0.2282471 0.9339057
vt 0.2423096 0.920261
vt 0.2545654 0.920261
vt 0.2545654 0.9339057
vt 0.2423096 0.9339057
vt 0.2563721 0.920261
vt 0.2686279 0.920261
vt 0.2686279 0.9339057
vt 0.2563721 0.9339057
vt 0.1579346 0.904636
vt 0.1701904 0.904636
vt 0.1701904 0.9182807
vt 0.1579346 0.9182807
vt 0.1719971 0.904636
vt 0.1842529 0.904636
vt 0.1842529 0.9182807
vt 0.1719971 0.9182807
vt 0.1860596 0.904636
vt 0.1983154 0.904636
vt 0.1983154 0.9182807
vt 0.1860596 0.9182807
vt 0.2001221 0.904636
vt 0.2123779 0.904636
vt 0.2123779 0.9182807
vt 0.2001221 0.9182807
vt 0.2141846 0.904636
vt 0.2264404 0.904636
vt 0.2264404 0.9182807
vt 0.2141846 0.9182807
vt 0.2282471 0.904636
vt 0.2405029 0.904636
vt 0.2405029 0.9182807
vt 0.2282471 0.9182807
vt 0.2423096 0.904636
vt 0.2545654 0.904636
vt 0.2545654 0.9182807
vt 0.2423096 0.9182807
vt 0.2563721 0.904636
vt 0.2686279 0.904636
vt 0.2686279 0.9182807
vt 0.2563721 0.9182807
vt 0.1579346 0.889011
vt 0.1701904 0.889011
vt 0.1701904 0.9026557
vt 0.1579346 0.9026557
vt 0.1719971 0.889011
vt 0.1842529 0.889011
vt 0.1842529 0.9026557
vt 0.1719971 0.9026557
vt 0.1860596 0.889011
vt 0.1983154 0.889011
vt 0.1983154 0.9026557
vt 0.1860596 0.9026557
vt 0.2001221 0.889011
vt 0.2123779 0.889011
vt 0.2123779 0.9026557
vt 0.2001221 0.9026557
vt 0.2141846 0.889011
vt 0.2264404 0.889011
vt 0.2264404 0.9026557
vt 0.2141846 0.9026557
vt 0.2282471 0.889011
vt 0.2405029 0.889011
vt 0.2405029 0.9026557
vt 0.2282471 0.9026557
vt 0.2423096 0.889011
vt 0.2545654 0.889011
vt 0.2545654 0.9026557
vt 0.2423096 0.9026557
vt 0.2563721 0.889011
vt 0.2686279 0.889011
vt 0.2686279 0.9026557
vt 0.2563721 0.9026557
vt 0.1579346 0.873386
vt 0.1701904 0.873386
vt 0.1701904 0.8870307
vt 0.1579346 0.8870307
vt 0.1719971 0.873386
vt 0.1842529 0.873386
vt 0.1842529 0.8870307
vt 0.1719971 0.8870307
vt 0.1860596 0.873386
vt 0.1983154 0.873386
vt 0.1983154 0.8870307
vt 0.1860596 0.8870307
vt 0.2001221 0.873386
vt 0.2123779 0.873386
vt 0.2123779 0.8870307
vt 0.2001221 0.8870307
vt 0.2141846 0.873386
vt 0.2264404 0.873386
vt 0.2264404 0.8870307
vt 0.2141846 0.8870307
vt 0.2282471 0.873386
vt 0.2405029 0.873386
vt 0.2405029 0.8870307
vt 0.2282471 0.8870307
vt 0.2423096 0.873386
vt 0.2545654 0.873386
vt 0.2545654 0.8870307
vt 0.2423096 0.8870307
vt 0.2563721 0.873386
vt 0.2686279 0.873386
vt 0.2686279 0.8870307
vt 0.2563721 0.8870307
vt 0.1579346 0.857761
vt 0.1701904 0.857761
vt 0.1701904 0.8714057
vt 0.1579346 0.8714057
vt 0.1719971 0.857761
vt 0.1842529 0.857761
vt 0.1842529 0.8714057
vt 0.1719971 0.8714057
vt 0.1860596 0.857761
vt 0.1983154 0.857761
vt 0.1983154 0.8714057
vt 0.1860596 0.8714057
vt 0.2001221 0.857761
vt 0.2123779 0.857761
vt 0.2123779 0.8714057
vt 0.2001221 0.8714057
vt 0.2141846 0.857761
vt 0.2264404 0.857761
vt 0.2264404 0.8714057
vt 0.2141846 0.8714057
vt 0.2282471 0.857761
vt 0.2405029 0.857761
vt 0.2405029 0.8714057
vt 0.2282471 0.8714057
vt 0.2423096 0.857761
vt 0.2545654 0.857761
vt 0.2545654 0.8714057
vt 0.2423096 0.8714057
vt 0.2563721 0.857761
vt 0.2686279 0.857761
vt 0.2686279 0.8714057
vt 0.2563721 0.8714057

# Normal
vn 0 0 -1

# Groups (Count = 1)

g mesh_0001
f 1/1/1 2/2/1 3/3/1 4/4/1
f 2/5/1 5/6/1 6/7/1 3/8/1
f 5/9/1 7/10/1 8/11/1 6/12/1
f 7/13/1 9/14/1 10/15/1 8/16/1
f 9/17/1 11/18/1 12/19/1 10/20/1
f 11/21/1 13/22/1 14/23/1 12/24/1
f 13/25/1 15/26/1 16/27/1 14/28/1
f 15/29/1 17/30/1 18/31/1 16/32/1
f 19/33/1 20/34/1 2/35/1 1/36/1
f 20/37/1 21/38/1 5/39/1 2/40/1
f 21/41/1 22/42/1 7/43/1 5/44/1
f 22/45/1 23/46/1 9/47/1 7/48/1
f 23/49/1 24/50/1 11/51/1 9/52/1
f 24/53/1 25/54/1 13/55/1 11/56/1
f 25/57/1 26/58/1 15/59/1 13/60/1
f 26/61/1 27/62/1 17/63/1 15/64/1
f 28/65/1 29/66/1 20/67/1 19/68/1
f 29/69/1 30/70/1 21/71/1 20/72/1
f 30/73/1 31/74/1 22/75/1 21/76/1
f 31/77/1 32/78/1 23/79/1 22/80/1
f 32/81/1 33/82/1 24/83/1 23/84/1
f 33/85/1 34/86/1 25/87/1 24/88/1
f 34/89/1 35/90/1 26/91/1 25/92/1
f 35/93/1 36/94/1 27/95/1 26/96/1
f 37/97/1 38/98/1 29/99/1 28/100/1
f 38/101/1 39/102/1 30/103/1 29/104/1
f 39/105/1 40/106/1 31/107/1 30/108/1
f 40/109/1 41/110/1 32/111/1 31/112/1
f 41/113/1 42/114/1 33/115/1 32/116/1
f 42/117/1 43/118/1 34/119/1 33/120/1
f 43/121/1 44/122/1 35/123/1 34/124/1
f 44/125/1 45/126/1 36/127/1 35/128/1
f 46/129/1 47/130/1 38/131/1 37/132/1
f 47/133/1 48/134/1 39/135/1 38/136/1
f 48/137/1 49/138/1 40/139/1 39/140/1
f 49/141/1 50/142/1 41/143/1 40/144/1
f 50/145/1 51/146/1 42/147/1 41/148/1
f 51/149/1 52/150/1 43/151/1 42/152/1
f 52/153/1 53/154/1 44/155/1 43/156/1
f 53/157/1 54/158/1 45/159/1 44/160/1
f 55/161/1 56/162/1 47/163/1 46/164/1
f 56/165/1 57/166/1 48/167/1 47/168/1
f 57/169/1 58/170/1 49/171/1 48/172/1
f 58/173/1 59/174/1 50/175/1 49/176/1
f 59/177/1 60/178/1 51/179/1 50/180/1
f 60/181/1 61/182/1 52/183/1 51/184/1
f 61/185/1 62/186/1 53/187/1 52/188/1
f 62/189/1 63/190/1 54/191/1 53/192/1
f 64/193/1 65/194/1 56/195/1 55/196/1
f 65/197/1 66/198/1 57/199/1 56/200/1
f 66/201/1 67/202/1 58/203/1 57/204/1
f 67/205/1 68/206/1 59/207/1 58/208/1
f 68/209/1 69/210/1 60/211/1 59/212/1
f 69/213/1 70/214/1 61/215/1 60/216/1
f 70/217/1 71/218/1 62/219/1 61/220/1
f 71/221/1 72/222/1 63/223/1 62/224/1
f 73/225/1 74/226/1 65/227/1 64/228/1
f 74/229/1 75/230/1 66/231/1 65/232/1
f 75/233/1 76/234/1 67/235/1 66/236/1
f 76/237/1 77/238/1 68/239/1 67/240/1
f 77/241/1 78/242/1 69/243/1 68/244/1
f 78/245/1 79/246/1 70/247/1 69/248/1
f 79/249/1 80/250/1 71/251/1 70/252/1
f 80/253/1 81/254/1 72/255/1 71/256/1
f 82/257/1 83/258/1 74/259/1 73/260/1
f 83/261/1 84/262/1 75/263/1 74/264/1
f 84/265/1 85/266/1 76/267/1 75/268/1
f 85/269/1 86/270/1 77/271/1 76/272/1
f 86/273/1 87/274/1 78/275/1 77/276/1
f 87/277/1 88/278/1 79/279/1 78/280/1
f 88/281/1 89/282/1 80/283/1 79/284/1
f 89/285/1 90/286/1 81/287/1 80/288/1

